<svg xmlns="http://www.w3.org/2000/svg" width="119.7" height="40" viewBox="0 0 119.7 40">
    <g>
      <g>
        <path d="M110.1,0H7.5L5.5.2A7,7,0,0,0,3.6.8,6.1,6.1,0,0,0,2,2,6.1,6.1,0,0,0,.8,3.6,7,7,0,0,0,.2,5.5a15,15,0,0,0-.2,2v25a13.6,13.6,0,0,0,.2,2,7,7,0,0,0,.6,1.9A6.1,6.1,0,0,0,2,38a6.1,6.1,0,0,0,1.6,1.2,7,7,0,0,0,1.9.6l2,.2H112.1l2-.2a6,6,0,0,0,1.9-.6,6.6,6.6,0,0,0,1.7-1.2,9.1,9.1,0,0,0,1.1-1.6,7.3,7.3,0,0,0,.7-1.9c.1-.7.1-1.3.2-2V7.5c-.1-.6-.1-1.3-.2-2a7.3,7.3,0,0,0-.7-1.9A5.9,5.9,0,0,0,116,.8a6,6,0,0,0-1.9-.6l-2-.2h-2Z" style="fill: #a6a6a6"/>
        <path d="M8.4,39.1H5.7A4.9,4.9,0,0,1,4,38.4a7.1,7.1,0,0,1-1.4-1,7.1,7.1,0,0,1-1-1.4,3.4,3.4,0,0,1-.5-1.7,11,11,0,0,1-.2-1.8V7.5a11,11,0,0,1,.2-1.8A3.4,3.4,0,0,1,1.6,4a7.1,7.1,0,0,1,1-1.4A7.1,7.1,0,0,1,4,1.6a3.4,3.4,0,0,1,1.7-.5A5.5,5.5,0,0,1,7.5.9H112.1a6.2,6.2,0,0,1,1.9.2,3.7,3.7,0,0,1,1.7.5A6.2,6.2,0,0,1,118.1,4a8.4,8.4,0,0,1,.5,1.7,11.1,11.1,0,0,1,.2,1.9V32.5a11,11,0,0,1-.2,1.8,8.4,8.4,0,0,1-.5,1.7,7.1,7.1,0,0,1-1,1.4l-1.4,1a5.8,5.8,0,0,1-1.7.6H8.4Z"/>
      </g>
      <g id="bcf40937-45a8-4272-b6a5-c0c87c5ce4b2" data-name=" Group ">
        <g id="ff4995d7-401c-4efe-a24a-85cce9387d59" data-name=" Group 2">
          <g id="aaf661d4-80c6-490e-98a2-007b6e76a5f7" data-name=" Group 3">
            <path id="bd6963b5-fdb2-4845-ab29-422efa5294da" data-name=" Path " d="M24.8,20.3a5,5,0,0,1,2.3-4.2,4.9,4.9,0,0,0-4-2.1c-1.6-.2-3.3,1-4.1,1s-2.2-1-3.6-1a5.3,5.3,0,0,0-4.5,2.8C9,20.1,10.4,25,12.3,27.7s2,2.8,3.4,2.8,1.9-.9,3.6-.9,2.1.9,3.5.9,2.5-1.4,3.4-2.7a17.7,17.7,0,0,0,1.5-3.1A4.7,4.7,0,0,1,24.8,20.3Z" style="fill: #fff"/>
            <path id="b41ac006-3151-43dc-a262-ac4532b80489" data-name=" Path 2" d="M22,12.2a5.5,5.5,0,0,0,1.2-3.5,5.3,5.3,0,0,0-3.3,1.7,4.4,4.4,0,0,0-1.1,3.3A3.7,3.7,0,0,0,22,12.2Z" style="fill: #fff"/>
          </g>
        </g>
        <g>
          <path d="M42.3,27.1H37.6l-1.2,3.4h-2l4.5-12.4H41l4.5,12.4H43.4Zm-4.2-1.5h3.7L40,20.1h-.1Z" style="fill: #fff"/>
          <path d="M55.2,26c0,2.8-1.5,4.6-3.8,4.6A3.2,3.2,0,0,1,48.5,29h0v4.5H46.6V21.4h1.8v1.5h.1a3.3,3.3,0,0,1,2.8-1.6C53.6,21.3,55.2,23.2,55.2,26Zm-2,0c0-1.9-.9-3.1-2.3-3.1s-2.4,1.3-2.4,3.1.9,3,2.4,3S53.2,27.8,53.2,26Z" style="fill: #fff"/>
          <path d="M65.1,26c0,2.8-1.5,4.6-3.8,4.6A3.1,3.1,0,0,1,58.5,29h0v4.5H56.6V21.4h1.8v1.5h0a3.4,3.4,0,0,1,2.9-1.6C63.6,21.3,65.1,23.2,65.1,26Zm-1.9,0c0-1.9-.9-3.1-2.4-3.1s-2.4,1.3-2.4,3.1,1,3,2.4,3,2.4-1.2,2.4-3Z" style="fill: #fff"/>
          <path d="M71.7,27c.1,1.3,1.3,2.1,3,2.1s2.7-.8,2.7-1.9-.7-1.6-2.3-2l-1.6-.4c-2.3-.5-3.4-1.6-3.4-3.3s1.9-3.6,4.6-3.6,4.4,1.4,4.4,3.6H77.3a2.4,2.4,0,0,0-2.7-2c-1.5,0-2.5.8-2.5,1.9s.7,1.4,2.3,1.7l1.3.4c2.6.6,3.6,1.6,3.6,3.4s-1.8,3.8-4.8,3.8-4.6-1.4-4.7-3.7Z" style="fill: #fff"/>
          <path d="M83.3,19.3v2.1h1.8v1.5H83.3v5A1,1,0,0,0,84.4,29h.7v1.5a4.1,4.1,0,0,1-1.1,0c-1.8,0-2.5-.6-2.5-2.4V22.9H80.2V21.4h1.3V19.3Z" style="fill: #fff"/>
          <path d="M86.1,26c0-2.9,1.6-4.7,4.3-4.7s4.3,1.8,4.3,4.7-1.7,4.6-4.3,4.6S86.1,28.8,86.1,26Zm6.7,0c0-2-.9-3.1-2.4-3.1S88,24,88,26s.9,3.1,2.4,3.1,2.4-1.2,2.4-3.1Z" style="fill: #fff"/>
          <path d="M96.2,21.4H98V23h0a2.3,2.3,0,0,1,2.2-1.7h.6v1.8L100,23a2,2,0,0,0-2,1.8v5.7H96.2Z" style="fill: #fff"/>
          <path d="M109.4,27.8a3.7,3.7,0,0,1-3.9,2.8c-2.6,0-4.3-1.8-4.3-4.6s1.7-4.7,4.2-4.7,4.1,1.8,4.1,4.5v.6h-6.4a2.4,2.4,0,0,0,2.1,2.6h.3a2,2,0,0,0,2.1-1.3Zm-6.3-2.7h4.5a2.1,2.1,0,0,0-2-2.3h-.2a2.3,2.3,0,0,0-2.3,2.3Z" style="fill: #fff"/>
        </g>
      </g>
    </g>
    <g id="e9232cea-7cb6-4f6a-bb8a-9fc2f289d5db" data-name=" Group 4">
      <g>
        <path d="M37.8,8.7a2.6,2.6,0,0,1,2.8,2.5.4.4,0,0,1,0,.5c0,1.9-1,3-2.8,3H35.7v-6Zm-1.2,5.2h1.1a2,2,0,0,0,2-1.8v-.4a1.9,1.9,0,0,0-1.6-2.1H36.6Z" style="fill: #fff"/>
        <path d="M41.7,12.4a2.1,2.1,0,0,1,4.2-.4v.4A2.2,2.2,0,0,1,44,14.8a2.1,2.1,0,0,1-2.3-1.9Zm3.3,0c0-.9-.4-1.5-1.2-1.5s-1.2.6-1.2,1.5S43,14,43.8,14s1.2-.6,1.2-1.6Z" style="fill: #fff"/>
        <path d="M51.6,14.7h-.9l-1-3.3h0l-1,3.3h-.9l-1.2-4.5h.9l.8,3.4h0l1-3.4h.8l.9,3.4h.1l.8-3.4h.9Z" style="fill: #fff"/>
        <path d="M53.9,10.2h.8v.7h.1a1.3,1.3,0,0,1,1.3-.8,1.5,1.5,0,0,1,1.6,1.4v3.2h-.9V12c0-.7-.3-1.1-1-1.1a1.1,1.1,0,0,0-1.1,1v2.8h-.8Z" style="fill: #fff"/>
        <path d="M59.1,8.4H60v6.3h-.9Z" style="fill: #fff"/>
        <path d="M61.2,12.4a2.2,2.2,0,0,1,1.9-2.3A2.2,2.2,0,0,1,65.5,12v.4a2.2,2.2,0,0,1-2,2.4,2.2,2.2,0,0,1-2.3-1.9Zm3.4,0a1.3,1.3,0,0,0-1.3-1.5c-.7,0-1.2.6-1.2,1.5s.5,1.6,1.2,1.6S64.6,13.4,64.6,12.4Z" style="fill: #fff"/>
        <path d="M66.4,13.4c0-.8.6-1.3,1.7-1.3h1.2v-.4c0-.5-.3-.7-.9-.7a1,1,0,0,0-1,.5h-.8a1.6,1.6,0,0,1,1.8-1.3c1.1,0,1.8.6,1.8,1.5v3.1h-.9v-.6h0a1.9,1.9,0,0,1-1.4.7,1.5,1.5,0,0,1-1.5-1.2Zm2.9-.4v-.3H68.2c-.6.1-.9.3-.9.7s.3.6.8.6a1,1,0,0,0,1.2-.9Z" style="fill: #fff"/>
        <path d="M71.3,12.4c0-1.4.8-2.3,1.9-2.3a1.6,1.6,0,0,1,1.4.8h.1V8.4h.9v6.3h-.9V14h-.1a1.6,1.6,0,0,1-1.4.8C72.1,14.8,71.3,13.9,71.3,12.4Zm1,0c0,1,.4,1.6,1.2,1.6s1.2-.6,1.2-1.6-.5-1.5-1.2-1.5-1.2.6-1.2,1.5Z" style="fill: #fff"/>
        <path d="M79.2,12.4a2.2,2.2,0,0,1,4.3-.4v.4a2.2,2.2,0,1,1-4.3.5Zm3.4,0c0-.9-.5-1.5-1.2-1.5a1.3,1.3,0,0,0-1.3,1.5c0,1,.5,1.6,1.3,1.6S82.6,13.4,82.6,12.4Z" style="fill: #fff"/>
        <path d="M84.7,10.2h.8v.7h.1a1.4,1.4,0,0,1,1.3-.8,1.5,1.5,0,0,1,1.6,1.4v3.2h-.9V12c0-.7-.3-1.1-1-1.1a1,1,0,0,0-1,1v2.8h-.9Z" style="fill: #fff"/>
        <path d="M93.5,9.1v1.1h1V11h-1v2.3c0,.5.2.7.7.7h.3v.8H94c-1,0-1.4-.3-1.4-1.2V11h-.7v-.8h.7V9.1Z" style="fill: #fff"/>
        <path d="M95.7,8.4h.9v2.5h.1a1.3,1.3,0,0,1,1.3-.8,1.6,1.6,0,0,1,1.6,1.4v3.2h-.9V12c0-.7-.3-1.1-1-1.1a1,1,0,0,0-1.1,1v2.8h-.9Z" style="fill: #fff"/>
        <path d="M104.8,13.5a2,2,0,0,1-2,1.3,2.1,2.1,0,0,1-2.1-2v-.3a2.2,2.2,0,0,1,1.8-2.4h.3c1.3,0,2,.9,2,2.3v.3h-3.2a1.2,1.2,0,0,0,1.1,1.3h.1a.9.9,0,0,0,1.1-.5ZM101.6,12h2.3a1,1,0,0,0-1-1.1h-.1a1.2,1.2,0,0,0-1.2,1.1Z" style="fill: #fff"/>
      </g>
    </g>
</svg>
